<svg width="13" height="14" viewBox="0 0 13 14" fill="none" xmlns="http://www.w3.org/2000/svg">
<path d="M2.33333 3V10.8667C2.33333 11.6134 2.33333 11.9865 2.47866 12.2717C2.60649 12.5226 2.81032 12.727 3.0612 12.8548C3.34613 13 3.71933 13 4.46461 13H8.20206C8.94734 13 9.31999 13 9.60493 12.8548C9.85581 12.727 10.0603 12.5226 10.1882 12.2717C10.3333 11.9868 10.3333 11.614 10.3333 10.8687V3M2.33333 3H3.66667M2.33333 3H1M3.66667 3H9M3.66667 3C3.66667 2.37874 3.66667 2.06827 3.76816 1.82324C3.90349 1.49654 4.16288 1.23682 4.48958 1.10149C4.73461 1 5.04541 1 5.66667 1H7C7.62126 1 7.93188 1 8.17691 1.10149C8.50362 1.23682 8.76311 1.49654 8.89844 1.82324C8.99993 2.06827 9 2.37875 9 3M9 3H10.3333M10.3333 3H11.6667" stroke="#ECE5D7" stroke-width="2" stroke-linecap="round" stroke-linejoin="round"/>
</svg>
